<?xml version="1.0" standalone="no"?>
<!DOCTYPE svg PUBLIC "-//W3C//DTD SVG 20010904//EN"
 "http://www.w3.org/TR/2001/REC-SVG-20010904/DTD/svg10.dtd">
<svg version="1.0" xmlns="http://www.w3.org/2000/svg"
 width="500.000000pt" height="500.000000pt" viewBox="0 0 500.000000 500.000000"
 preserveAspectRatio="xMidYMid meet">
<metadata>
Created by potrace 1.11, written by Peter Selinger 2001-2013
</metadata>
<g transform="translate(0.000000,500.000000) scale(0.100000,-0.100000)"
fill="#000000" stroke="none">
<path d="M2220 3035 c-212 -294 -387 -535 -390 -535 -3 0 -173 239 -379 530
-206 292 -375 529 -376 528 -1 -2 -5 -355 -9 -785 l-6 -783 127 0 126 0 -7
420 c-4 231 -5 420 -2 420 13 0 246 -335 242 -347 -3 -7 0 -12 6 -10 6 1 17
-8 23 -21 7 -12 21 -33 32 -45 35 -39 203 -276 203 -287 0 -37 43 10 139 154
8 11 47 66 85 121 39 55 73 105 76 111 11 26 246 354 253 354 5 0 5 -196 1
-435 l-7 -435 126 0 127 0 0 790 c0 435 -1 790 -3 790 -2 0 -176 -241 -387
-535z"/>
<path d="M3030 2754 l0 -769 317 6 c292 5 323 7 378 27 129 45 203 103 257
200 35 61 43 100 43 212 0 63 -5 85 -31 140 -37 77 -105 148 -180 187 l-53 27
59 54 c41 36 70 74 92 120 31 62 33 73 33 172 0 99 -2 109 -33 172 -49 101
-122 153 -268 194 -46 13 -120 18 -336 21 l-278 5 0 -768z m525 515 c153 -42
196 -244 75 -353 -48 -43 -73 -48 -228 -44 l-123 3 0 198 c0 108 1 199 1 202
0 10 236 5 275 -6z m69 -659 c86 -27 132 -71 142 -135 16 -107 -19 -175 -113
-222 -55 -27 -66 -28 -215 -31 l-158 -4 -1 146 c0 80 0 171 0 201 0 30 0 57 0
60 1 3 64 5 140 5 112 0 152 -4 205 -20z"/>
</g>
</svg>
